<?xml version="1.0" encoding="utf-8"?>
<!-- Generator: Adobe Illustrator 16.0.0, SVG Export Plug-In . SVG Version: 6.00 Build 0)  -->
<!DOCTYPE svg PUBLIC "-//W3C//DTD SVG 1.1//EN" "http://www.w3.org/Graphics/SVG/1.1/DTD/svg11.dtd">
<svg version="1.1"
	 id="svg2" xmlns:dc="http://purl.org/dc/elements/1.1/" xmlns:cc="http://creativecommons.org/ns#" xmlns:rdf="http://www.w3.org/1999/02/22-rdf-syntax-ns#" xmlns:svg="http://www.w3.org/2000/svg" xmlns:sodipodi="http://sodipodi.sourceforge.net/DTD/sodipodi-0.dtd" xmlns:inkscape="http://www.inkscape.org/namespaces/inkscape" inkscape:version="0.48.2 r9819" sodipodi:docname="GetFile.pdf"
	 xmlns="http://www.w3.org/2000/svg" xmlns:xlink="http://www.w3.org/1999/xlink" x="0px" y="0px" width="400px" height="357.729px"
	 viewBox="0 0 400 357.729" enable-background="new 0 0 400 357.729" xml:space="preserve">
<sodipodi:namedview  id="namedview4" bordercolor="#666666" pagecolor="#ffffff" borderopacity="1" objecttolerance="10" gridtolerance="10" guidetolerance="10" showgrid="false" fit-margin-top="0" fit-margin-left="0" inkscape:zoom="0.48224776" inkscape:cx="64.509769" inkscape:cy="-78.03852" inkscape:pageopacity="0" inkscape:pageshadow="2" inkscape:window-width="1121" inkscape:window-height="744" fit-margin-right="0" fit-margin-bottom="0" inkscape:window-x="0" inkscape:window-y="0" inkscape:window-maximized="0" inkscape:current-layer="g10">
	</sodipodi:namedview>
<g id="g10" transform="matrix(1.25,0,0,-1.25,-1429.2113,402.72843)" inkscape:label="GetFile" inkscape:groupmode="layer">
	<g id="g3261" transform="matrix(5.2996804,0,0,5.2996804,-4916.1212,-154.78849)">
		<path id="path52" inkscape:connector-curvature="0" fill="#00A221" d="M1143.369,36h60.381v54h-60.381V36z"/>
		<g id="g54">
			<g>
				<g>
					<defs>
						<rect id="SVGID_1_" x="-151.361" y="-1121.905" width="2649.841" height="2369.812"/>
					</defs>
					<clipPath id="SVGID_2_">
						<use xlink:href="#SVGID_1_"  overflow="visible"/>
					</clipPath>
					<g id="g56" clip-path="url(#SVGID_2_)">
						<g id="g62" transform="translate(1183.0096,47.6816)">
							<path id="path64" inkscape:connector-curvature="0" fill="#FFFFFF" d="M0,0h-14.064v25.336H-7V4.488h6.794
								c4.69,0,6.66,3.249,6.66,11.616c0,8.417-2.238,10.863-6.999,10.863H-16.04V0h-6.995v26.967H-33.3v4.498H1.634
								c8.426,0,12.429-4.36,12.429-15.294C14.063,1.766,8.086,0,0,0"/>
						</g>
					</g>
				</g>
			</g>
		</g>
	</g>
</g>
</svg>
